<mxfile host="Electron" modified="2023-11-04T18:23:33.186Z" agent="Mozilla/5.0 (Windows NT 10.0; Win64; x64) AppleWebKit/537.36 (KHTML, like Gecko) draw.io/22.0.0 Chrome/114.0.5735.289 Electron/25.8.3 Safari/537.36" etag="Mtez7tfC6PL4woH8zDvy" version="22.0.0" type="device">
  <diagram name="Page-1" id="XB1AkTVWC2hju5Ni8gpt">
    <mxGraphModel dx="1434" dy="956" grid="1" gridSize="10" guides="1" tooltips="1" connect="1" arrows="1" fold="1" page="1" pageScale="1" pageWidth="850" pageHeight="1100" math="0" shadow="0">
      <root>
        <mxCell id="0" />
        <mxCell id="1" parent="0" />
        <mxCell id="rPrPYWyA3ruYyVc2sPvk-1" value="" style="image;aspect=fixed;perimeter=ellipsePerimeter;html=1;align=center;shadow=0;dashed=0;spacingTop=3;image=img/lib/active_directory/internet_cloud.svg;" vertex="1" parent="1">
          <mxGeometry x="200" y="160" width="126.99" height="80" as="geometry" />
        </mxCell>
        <mxCell id="rPrPYWyA3ruYyVc2sPvk-2" value="" style="verticalLabelPosition=bottom;sketch=0;html=1;fillColor=#FF3333;strokeColor=#ffffff;verticalAlign=top;align=center;points=[[0,0.5,0],[0.125,0.25,0],[0.25,0,0],[0.5,0,0],[0.75,0,0],[0.875,0.25,0],[1,0.5,0],[0.875,0.75,0],[0.75,1,0],[0.5,1,0],[0.125,0.75,0]];pointerEvents=1;shape=mxgraph.cisco_safe.compositeIcon;bgIcon=ellipse;resIcon=mxgraph.cisco_safe.design.user;" vertex="1" parent="1">
          <mxGeometry x="40" y="160" width="80" height="80" as="geometry" />
        </mxCell>
        <mxCell id="rPrPYWyA3ruYyVc2sPvk-3" value="Attacker" style="text;html=1;strokeColor=none;fillColor=none;align=center;verticalAlign=middle;whiteSpace=wrap;rounded=0;" vertex="1" parent="1">
          <mxGeometry x="50" y="130" width="60" height="30" as="geometry" />
        </mxCell>
        <mxCell id="rPrPYWyA3ruYyVc2sPvk-4" value="Internet" style="text;html=1;strokeColor=none;fillColor=none;align=center;verticalAlign=middle;whiteSpace=wrap;rounded=0;" vertex="1" parent="1">
          <mxGeometry x="227.99" y="130" width="60" height="30" as="geometry" />
        </mxCell>
        <mxCell id="rPrPYWyA3ruYyVc2sPvk-5" value="" style="sketch=0;html=1;aspect=fixed;strokeColor=none;shadow=0;fillColor=#3B8DF1;verticalAlign=top;labelPosition=center;verticalLabelPosition=bottom;shape=mxgraph.gcp2.cloud_server" vertex="1" parent="1">
          <mxGeometry x="219.01" y="560" width="89.89" height="80" as="geometry" />
        </mxCell>
        <mxCell id="rPrPYWyA3ruYyVc2sPvk-6" value="App Server" style="text;html=1;strokeColor=none;fillColor=none;align=center;verticalAlign=middle;whiteSpace=wrap;rounded=0;" vertex="1" parent="1">
          <mxGeometry x="140" y="585" width="60" height="30" as="geometry" />
        </mxCell>
        <mxCell id="rPrPYWyA3ruYyVc2sPvk-8" value="" style="verticalLabelPosition=bottom;sketch=0;aspect=fixed;html=1;verticalAlign=top;strokeColor=none;align=center;outlineConnect=0;shape=mxgraph.citrix.cache_server;" vertex="1" parent="1">
          <mxGeometry x="228.45" y="360" width="71" height="97.5" as="geometry" />
        </mxCell>
        <mxCell id="rPrPYWyA3ruYyVc2sPvk-9" value="Nginx" style="text;html=1;strokeColor=none;fillColor=none;align=center;verticalAlign=middle;whiteSpace=wrap;rounded=0;" vertex="1" parent="1">
          <mxGeometry x="140" y="385" width="60" height="30" as="geometry" />
        </mxCell>
        <mxCell id="rPrPYWyA3ruYyVc2sPvk-10" value="" style="image;aspect=fixed;html=1;points=[];align=center;fontSize=12;image=img/lib/azure2/networking/Web_Application_Firewall_Policies_WAF.svg;" vertex="1" parent="1">
          <mxGeometry x="440" y="368.75" width="80" height="80" as="geometry" />
        </mxCell>
        <mxCell id="rPrPYWyA3ruYyVc2sPvk-11" value="WAF" style="text;html=1;strokeColor=none;fillColor=none;align=center;verticalAlign=middle;whiteSpace=wrap;rounded=0;" vertex="1" parent="1">
          <mxGeometry x="520" y="393.75" width="60" height="30" as="geometry" />
        </mxCell>
        <mxCell id="rPrPYWyA3ruYyVc2sPvk-12" value="" style="endArrow=classic;html=1;rounded=0;exitX=1;exitY=0.5;exitDx=0;exitDy=0;exitPerimeter=0;entryX=0;entryY=0.5;entryDx=0;entryDy=0;" edge="1" parent="1" source="rPrPYWyA3ruYyVc2sPvk-2" target="rPrPYWyA3ruYyVc2sPvk-1">
          <mxGeometry width="50" height="50" relative="1" as="geometry">
            <mxPoint x="400" y="510" as="sourcePoint" />
            <mxPoint x="450" y="460" as="targetPoint" />
          </mxGeometry>
        </mxCell>
        <mxCell id="rPrPYWyA3ruYyVc2sPvk-13" value="" style="endArrow=classic;html=1;rounded=0;exitX=0.5;exitY=1;exitDx=0;exitDy=0;" edge="1" parent="1" source="rPrPYWyA3ruYyVc2sPvk-1" target="rPrPYWyA3ruYyVc2sPvk-8">
          <mxGeometry width="50" height="50" relative="1" as="geometry">
            <mxPoint x="400" y="510" as="sourcePoint" />
            <mxPoint x="450" y="460" as="targetPoint" />
          </mxGeometry>
        </mxCell>
        <mxCell id="rPrPYWyA3ruYyVc2sPvk-14" value="" style="endArrow=classic;startArrow=classic;html=1;rounded=0;" edge="1" parent="1" source="rPrPYWyA3ruYyVc2sPvk-8" target="rPrPYWyA3ruYyVc2sPvk-10">
          <mxGeometry width="50" height="50" relative="1" as="geometry">
            <mxPoint x="400" y="510" as="sourcePoint" />
            <mxPoint x="450" y="460" as="targetPoint" />
          </mxGeometry>
        </mxCell>
        <mxCell id="rPrPYWyA3ruYyVc2sPvk-17" value="" style="endArrow=classic;html=1;rounded=0;" edge="1" parent="1" source="rPrPYWyA3ruYyVc2sPvk-8" target="rPrPYWyA3ruYyVc2sPvk-5">
          <mxGeometry width="50" height="50" relative="1" as="geometry">
            <mxPoint x="400" y="510" as="sourcePoint" />
            <mxPoint x="450" y="460" as="targetPoint" />
          </mxGeometry>
        </mxCell>
      </root>
    </mxGraphModel>
  </diagram>
</mxfile>
